@startuml

' hide the spot
  hide circle
 '  类型	   符号
 '  0 或 1	|o--
 '  1	||--
 '  0个或多个	}o--
 '  1个或多个	}|--

' avoid problems with angled crows feet


skinparam linetype ortho

entity "实体01" as e01 {
  *e1_id : number <<generated>>
  --
  *name : text
  description : text
}

entity "实体02" as e02 {
  *e2_id : number <<generated>>
  --
  *e1_id : number <<FK>>
  other_details : text
}

entity "实体" as e03 {
  *e3_id : number <<generated>>
  --
  e1_id : number <<FK>>
  other_details : text
}

e01 ||..o{ e02
e01 |o..o{ e03

@enduml