@startuml
skinparam classAttributeIconSize 0

package "class Protype(原型模式 Prototype Pattern)" #DDDDDD {
    class Protype<< (A,#FF7700) interface>>
    {
    +clone()
    }
    note right: 原型的抽象类或接口

    class ConcreteProtype
    {
    +clone()
    }
    note right: 具体的原型类

    Protype <|.. ConcreteProtype
    Client ..> Protype:<<import>>
}
@enduml
